{"title":"Thunderbirds Are Go S01E24 Touch and Go 1080P WEB-DL AAC2 0 H 26","uid":13693002,"size":887402659,"categoryP":"video","categoryS":"hd___tv_shows","magnet":"?xt=urn:btih:8a0f7d524c61acd8f16c0ce7ec924162d65fc3d9&amp;dn=Thunderbirds+Are+Go+S01E24+Touch+and+Go+1080P+WEB-DL+AAC2+0+H+26&amp;tr=udp%3A%2F%2Ftracker.leechers-paradise.org%3A6969&amp;tr=udp%3A%2F%2Fzer0day.ch%3A1337&amp;tr=udp%3A%2F%2Fopen.demonii.com%3A1337&amp;tr=udp%3A%2F%2Ftracker.coppersurfer.tk%3A6969&amp;tr=udp%3A%2F%2Fexodus.desync.com%3A6969","seeders":1,"leechers":0,"uploader":"jmanwf","files":1,"time":1456635147,"description":"Description\r\nIn the Arizona desert there is a facility known as CATCH, from where all air traffic in North America is controlled. Scott and Virgil handle a rescue mission involving a mid-air plane collision while Kayo infiltrates the bunker with the help of Thunderbird Shadow. Then Kayo realises that this is all part of a much bigger plan by the Hood.\r\n\r\n\r\n\r\nVideo\r\nID : 2\r\nFormat : AVC\r\nFormat/Info : Advanced Video Codec\r\nFormat profile :   \r\nFormat settings, CABAC : Yes\r\nFormat settings, ReFrames : 4 frames\r\nCodec ID : avc1\r\nCodec ID/Info : Advanced Video Coding\r\nDuration : 22mn 6s\r\nBit rate : 5 222 Kbps\r\nWidth : 1 920 pixels\r\nHeight : 1 080 pixels\r\nDisplay aspect ratio : 16:9\r\nFrame rate mode : Constant\r\nFrame rate : 25.000 fps\r\nColor space : YUV\r\nChroma subsampling : 4:2:0\r\nBit depth : 8 bits\r\nScan type : Progressive\r\nBits/(Pixel*Frame) : 0.101\r\nStream size : 826 MiB (98%)\r\nLanguage : English\r\nEncoded date : UTC 2016-02-27 12:39:27\r\nTagged date : UTC 2016-02-27 12:41:39\r\nColor range : Limited\r\nColor primaries : BT.709\r\nTransfer characteristics : BT.709\r\nMatrix coefficients : BT.709\r\n\r\nAudio\r\nID : 1\r\nFormat : AAC\r\nFormat/Info : Advanced Audio Codec\r\nFormat profile : LC\r\nCodec ID : 40\r\nDuration : 22mn 6s\r\nBit rate mode : Variable\r\nBit rate : 126 Kbps\r\nMaximum bit rate : 201 Kbps\r\nChannel(s) : 2 channels\r\nChannel positions : Front: L R\r\nSampling rate : 48.0 KHz\r\nCompression mode : Lossy\r\nStream size : 19.9 MiB (2%)\r\nLanguage : English\r\nEncoded date : UTC 2016-02-27 12:39:27\r\nTagged date : UTC 2016-02-27 12:41:39","torrent":{"xt":"urn:btih:8a0f7d524c61acd8f16c0ce7ec924162d65fc3d9","amp;dn":"Thunderbirds+Are+Go+S01E24+Touch+and+Go+1080P+WEB-DL+AAC2+0+H+26","amp;tr":["udp%3A%2F%2Ftracker.leechers-paradise.org%3A6969","udp%3A%2F%2Fzer0day.ch%3A1337","udp%3A%2F%2Fopen.demonii.com%3A1337","udp%3A%2F%2Ftracker.coppersurfer.tk%3A6969","udp%3A%2F%2Fexodus.desync.com%3A6969"],"infoHash":"8a0f7d524c61acd8f16c0ce7ec924162d65fc3d9","infoHashBuffer":{"type":"Buffer","data":[138,15,125,82,76,97,172,216,241,108,12,231,236,146,65,98,214,95,195,217]},"announce":[],"urlList":[]}}